<mxfile host="Electron" agent="Mozilla/5.0 (Windows NT 10.0; Win64; x64) AppleWebKit/537.36 (KHTML, like Gecko) draw.io/24.7.5 Chrome/126.0.6478.183 Electron/31.3.0 Safari/537.36" version="24.7.5">
  <diagram name="Página-1" id="sii6xtMDSqnDwptgTPa_">
    <mxGraphModel dx="4628" dy="1328" grid="0" gridSize="10" guides="1" tooltips="1" connect="1" arrows="1" fold="1" page="0" pageScale="1" pageWidth="827" pageHeight="1169" math="0" shadow="0">
      <root>
        <mxCell id="0" />
        <mxCell id="1" parent="0" />
        <mxCell id="awBL8_RBLQok6DBFQ3Oc-104" value="PARCEIRO" style="swimlane;whiteSpace=wrap;html=1;direction=east;startSize=113;dashed=1;dashPattern=8 8;strokeWidth=2;" parent="1" vertex="1">
          <mxGeometry x="-2127" y="5" width="1051" height="1525" as="geometry" />
        </mxCell>
        <mxCell id="nKhrt30oRKaUFYbFxk2Q-17" value="" style="swimlane;whiteSpace=wrap;html=1;direction=east;startSize=1;strokeWidth=4;" parent="awBL8_RBLQok6DBFQ3Oc-104" vertex="1">
          <mxGeometry x="3" width="1048" height="1525" as="geometry" />
        </mxCell>
        <mxCell id="awBL8_RBLQok6DBFQ3Oc-111" value="&lt;font style=&quot;font-size: 19px;&quot;&gt;SIM&lt;/font&gt;" style="text;strokeColor=none;align=center;fillColor=none;html=1;verticalAlign=middle;whiteSpace=wrap;rounded=0;" parent="nKhrt30oRKaUFYbFxk2Q-17" vertex="1">
          <mxGeometry x="499" y="1241" width="54" height="30" as="geometry" />
        </mxCell>
        <mxCell id="awBL8_RBLQok6DBFQ3Oc-105" value="&lt;font style=&quot;vertical-align: inherit;&quot;&gt;&lt;font style=&quot;vertical-align: inherit;&quot;&gt;&lt;font style=&quot;vertical-align: inherit;&quot;&gt;&lt;font style=&quot;vertical-align: inherit;&quot;&gt;LOGUE NA&lt;/font&gt;&lt;/font&gt;&lt;/font&gt;&lt;/font&gt;&lt;div&gt;&lt;font style=&quot;vertical-align: inherit;&quot;&gt;&lt;font style=&quot;vertical-align: inherit;&quot;&gt;&lt;font style=&quot;vertical-align: inherit;&quot;&gt;&lt;font style=&quot;vertical-align: inherit;&quot;&gt;&lt;font style=&quot;vertical-align: inherit;&quot;&gt;&lt;font style=&quot;vertical-align: inherit;&quot;&gt;SUA CONTA&lt;/font&gt;&lt;/font&gt;&lt;/font&gt;&lt;/font&gt;&lt;/font&gt;&lt;/font&gt;&lt;/div&gt;" style="rounded=1;whiteSpace=wrap;html=1;absoluteArcSize=1;arcSize=14;strokeWidth=2;" parent="nKhrt30oRKaUFYbFxk2Q-17" vertex="1">
          <mxGeometry x="139" y="838" width="100" height="100" as="geometry" />
        </mxCell>
        <mxCell id="awBL8_RBLQok6DBFQ3Oc-91" value="CADASTRE-SE&lt;br&gt;NO SITE" style="rounded=1;whiteSpace=wrap;html=1;absoluteArcSize=1;arcSize=14;strokeWidth=2;" parent="nKhrt30oRKaUFYbFxk2Q-17" vertex="1">
          <mxGeometry x="145" y="606" width="100" height="100" as="geometry" />
        </mxCell>
        <mxCell id="awBL8_RBLQok6DBFQ3Oc-80" value="&lt;font style=&quot;font-size: 13px;&quot;&gt;&lt;b&gt;NÃO ESTÁ CONSEGUINDO ACESSAR AS DASHBOARDS NO SITE&lt;/b&gt;&lt;/font&gt;" style="strokeWidth=5;html=1;shape=mxgraph.flowchart.start_2;whiteSpace=wrap;" parent="nKhrt30oRKaUFYbFxk2Q-17" vertex="1">
          <mxGeometry x="27" y="148" width="314" height="153" as="geometry" />
        </mxCell>
        <mxCell id="awBL8_RBLQok6DBFQ3Oc-110" value="&lt;font style=&quot;vertical-align: inherit;&quot;&gt;&lt;font style=&quot;vertical-align: inherit;&quot;&gt;CONECTE A INTERNET&lt;/font&gt;&lt;/font&gt;" style="rounded=1;whiteSpace=wrap;html=1;absoluteArcSize=1;arcSize=14;strokeWidth=2;" parent="nKhrt30oRKaUFYbFxk2Q-17" vertex="1">
          <mxGeometry x="153" y="389" width="100" height="100" as="geometry" />
        </mxCell>
        <mxCell id="nKhrt30oRKaUFYbFxk2Q-47" value="&lt;font style=&quot;font-size: 19px;&quot;&gt;&lt;b&gt;Parceiros&lt;br&gt;Lumini&lt;/b&gt;&lt;/font&gt;" style="text;html=1;align=center;verticalAlign=middle;whiteSpace=wrap;rounded=0;" parent="nKhrt30oRKaUFYbFxk2Q-17" vertex="1">
          <mxGeometry x="641" y="41" width="60" height="30" as="geometry" />
        </mxCell>
        <mxCell id="nKhrt30oRKaUFYbFxk2Q-34" value="&lt;span style=&quot;font-size: 19px;&quot;&gt;NÃO&lt;/span&gt;" style="text;strokeColor=none;align=center;fillColor=none;html=1;verticalAlign=middle;whiteSpace=wrap;rounded=0;" parent="nKhrt30oRKaUFYbFxk2Q-17" vertex="1">
          <mxGeometry x="17" y="1109" width="60" height="20" as="geometry" />
        </mxCell>
        <mxCell id="8XTtVJRQWcLJK9WEEvCq-19" value="&lt;font style=&quot;font-size: 26px;&quot;&gt;&lt;b&gt;PARCEIRO Lumini&lt;/b&gt;&lt;/font&gt;" style="text;html=1;align=center;verticalAlign=middle;whiteSpace=wrap;rounded=0;" vertex="1" parent="nKhrt30oRKaUFYbFxk2Q-17">
          <mxGeometry x="43" y="43" width="266" height="30" as="geometry" />
        </mxCell>
        <mxCell id="awBL8_RBLQok6DBFQ3Oc-114" value="&lt;font style=&quot;font-size: 31px;&quot;&gt;Atendente&lt;/font&gt;" style="swimlane;whiteSpace=wrap;html=1;direction=east;startSize=113;dashed=1;dashPattern=8 8;strokeWidth=2;" parent="1" vertex="1">
          <mxGeometry x="-1769" y="5" width="341" height="1527" as="geometry" />
        </mxCell>
        <mxCell id="nKhrt30oRKaUFYbFxk2Q-5" value="" style="edgeStyle=orthogonalEdgeStyle;rounded=0;orthogonalLoop=1;jettySize=auto;html=1;" parent="awBL8_RBLQok6DBFQ3Oc-114" source="awBL8_RBLQok6DBFQ3Oc-82" target="awBL8_RBLQok6DBFQ3Oc-84" edge="1">
          <mxGeometry relative="1" as="geometry" />
        </mxCell>
        <mxCell id="awBL8_RBLQok6DBFQ3Oc-82" value="&lt;font style=&quot;vertical-align: inherit;&quot;&gt;&lt;font style=&quot;vertical-align: inherit;&quot;&gt;SUA MAQUINA ESTÁ CONECTADA A INTERNET?&lt;/font&gt;&lt;/font&gt;" style="strokeWidth=2;html=1;shape=mxgraph.flowchart.decision;whiteSpace=wrap;" parent="awBL8_RBLQok6DBFQ3Oc-114" vertex="1">
          <mxGeometry x="50" y="364" width="195" height="150" as="geometry" />
        </mxCell>
        <mxCell id="nKhrt30oRKaUFYbFxk2Q-6" value="" style="edgeStyle=orthogonalEdgeStyle;rounded=0;orthogonalLoop=1;jettySize=auto;html=1;" parent="awBL8_RBLQok6DBFQ3Oc-114" source="awBL8_RBLQok6DBFQ3Oc-84" target="awBL8_RBLQok6DBFQ3Oc-89" edge="1">
          <mxGeometry relative="1" as="geometry" />
        </mxCell>
        <mxCell id="awBL8_RBLQok6DBFQ3Oc-84" value="O CADASTRO NO SITE FOI REALIZADO?" style="strokeWidth=2;html=1;shape=mxgraph.flowchart.decision;whiteSpace=wrap;" parent="awBL8_RBLQok6DBFQ3Oc-114" vertex="1">
          <mxGeometry x="50" y="581" width="195" height="150" as="geometry" />
        </mxCell>
        <mxCell id="awBL8_RBLQok6DBFQ3Oc-89" value="REALIZOU O&lt;br&gt;&lt;div&gt;&lt;font style=&quot;vertical-align: inherit;&quot;&gt;LOGIN&lt;/font&gt;&lt;span style=&quot;background-color: initial;&quot;&gt;?&lt;/span&gt;&lt;/div&gt;" style="strokeWidth=2;html=1;shape=mxgraph.flowchart.decision;whiteSpace=wrap;" parent="awBL8_RBLQok6DBFQ3Oc-114" vertex="1">
          <mxGeometry x="50" y="815" width="195" height="150" as="geometry" />
        </mxCell>
        <mxCell id="awBL8_RBLQok6DBFQ3Oc-115" value="&lt;font style=&quot;font-size: 19px;&quot;&gt;SIM&lt;/font&gt;" style="text;strokeColor=none;align=center;fillColor=none;html=1;verticalAlign=middle;whiteSpace=wrap;rounded=0;" parent="awBL8_RBLQok6DBFQ3Oc-114" vertex="1">
          <mxGeometry x="146" y="533" width="60" height="30" as="geometry" />
        </mxCell>
        <mxCell id="awBL8_RBLQok6DBFQ3Oc-117" value="&lt;br&gt;&lt;div&gt;&lt;br&gt;&lt;/div&gt;" style="text;strokeColor=none;align=center;fillColor=none;html=1;verticalAlign=middle;whiteSpace=wrap;rounded=0;" parent="awBL8_RBLQok6DBFQ3Oc-114" vertex="1">
          <mxGeometry x="171" y="702" width="60" height="30" as="geometry" />
        </mxCell>
        <mxCell id="nKhrt30oRKaUFYbFxk2Q-37" value="&lt;font style=&quot;font-size: 19px;&quot;&gt;SIM&lt;/font&gt;" style="text;strokeColor=none;align=center;fillColor=none;html=1;verticalAlign=middle;whiteSpace=wrap;rounded=0;" parent="awBL8_RBLQok6DBFQ3Oc-114" vertex="1">
          <mxGeometry x="152" y="759" width="60" height="30" as="geometry" />
        </mxCell>
        <mxCell id="awBL8_RBLQok6DBFQ3Oc-112" value="&lt;font style=&quot;font-size: 19px;&quot;&gt;SIM&lt;/font&gt;" style="text;strokeColor=none;align=center;fillColor=none;html=1;verticalAlign=middle;whiteSpace=wrap;rounded=0;" parent="awBL8_RBLQok6DBFQ3Oc-114" vertex="1">
          <mxGeometry x="263" y="983" width="60" height="30" as="geometry" />
        </mxCell>
        <mxCell id="8XTtVJRQWcLJK9WEEvCq-9" value="" style="edgeStyle=orthogonalEdgeStyle;rounded=0;orthogonalLoop=1;jettySize=auto;html=1;" edge="1" parent="awBL8_RBLQok6DBFQ3Oc-114" source="awBL8_RBLQok6DBFQ3Oc-94" target="nKhrt30oRKaUFYbFxk2Q-22">
          <mxGeometry relative="1" as="geometry" />
        </mxCell>
        <mxCell id="awBL8_RBLQok6DBFQ3Oc-94" value="FUNCIONOU?" style="strokeWidth=2;html=1;shape=mxgraph.flowchart.decision;whiteSpace=wrap;" parent="awBL8_RBLQok6DBFQ3Oc-114" vertex="1">
          <mxGeometry x="100" y="1048" width="191" height="165.5" as="geometry" />
        </mxCell>
        <mxCell id="nKhrt30oRKaUFYbFxk2Q-22" value="&lt;font style=&quot;font-size: 18px;&quot;&gt;FIM&lt;/font&gt;" style="strokeWidth=2;html=1;shape=mxgraph.flowchart.start_2;whiteSpace=wrap;" parent="awBL8_RBLQok6DBFQ3Oc-114" vertex="1">
          <mxGeometry x="123.5" y="1295" width="144" height="138" as="geometry" />
        </mxCell>
        <mxCell id="awBL8_RBLQok6DBFQ3Oc-116" value="&lt;font style=&quot;font-size: 33px;&quot;&gt;Equipe tecnica&lt;/font&gt;" style="swimlane;whiteSpace=wrap;html=1;direction=east;startSize=113;dashed=1;dashPattern=8 8;strokeWidth=2;" parent="1" vertex="1">
          <mxGeometry x="-1428" y="5" width="350" height="1522" as="geometry" />
        </mxCell>
        <mxCell id="awBL8_RBLQok6DBFQ3Oc-92" value="" style="verticalLabelPosition=bottom;verticalAlign=top;html=1;shape=process;whiteSpace=wrap;rounded=1;size=0.14;arcSize=6;" parent="awBL8_RBLQok6DBFQ3Oc-116" vertex="1">
          <mxGeometry x="78.75" y="1075.75" width="192.5" height="110" as="geometry" />
        </mxCell>
        <mxCell id="awBL8_RBLQok6DBFQ3Oc-99" value="VISITA&amp;nbsp;&lt;span style=&quot;background-color: initial;&quot;&gt;TECNICA&lt;/span&gt;" style="text;html=1;align=center;verticalAlign=middle;resizable=0;points=[];autosize=1;strokeColor=none;fillColor=none;" parent="awBL8_RBLQok6DBFQ3Oc-116" vertex="1">
          <mxGeometry x="125" y="1117.75" width="110" height="26" as="geometry" />
        </mxCell>
        <mxCell id="nKhrt30oRKaUFYbFxk2Q-1" style="edgeStyle=orthogonalEdgeStyle;rounded=0;orthogonalLoop=1;jettySize=auto;html=1;entryX=0.5;entryY=0;entryDx=0;entryDy=0;entryPerimeter=0;" parent="1" source="awBL8_RBLQok6DBFQ3Oc-80" target="awBL8_RBLQok6DBFQ3Oc-82" edge="1">
          <mxGeometry relative="1" as="geometry" />
        </mxCell>
        <mxCell id="nKhrt30oRKaUFYbFxk2Q-2" style="edgeStyle=orthogonalEdgeStyle;rounded=0;orthogonalLoop=1;jettySize=auto;html=1;entryX=1;entryY=0.5;entryDx=0;entryDy=0;" parent="1" source="awBL8_RBLQok6DBFQ3Oc-82" target="awBL8_RBLQok6DBFQ3Oc-110" edge="1">
          <mxGeometry relative="1" as="geometry" />
        </mxCell>
        <mxCell id="nKhrt30oRKaUFYbFxk2Q-3" style="edgeStyle=orthogonalEdgeStyle;rounded=0;orthogonalLoop=1;jettySize=auto;html=1;" parent="1" source="awBL8_RBLQok6DBFQ3Oc-84" target="awBL8_RBLQok6DBFQ3Oc-91" edge="1">
          <mxGeometry relative="1" as="geometry" />
        </mxCell>
        <mxCell id="nKhrt30oRKaUFYbFxk2Q-4" style="edgeStyle=orthogonalEdgeStyle;rounded=0;orthogonalLoop=1;jettySize=auto;html=1;entryX=1;entryY=0.5;entryDx=0;entryDy=0;" parent="1" source="awBL8_RBLQok6DBFQ3Oc-89" target="awBL8_RBLQok6DBFQ3Oc-105" edge="1">
          <mxGeometry relative="1" as="geometry" />
        </mxCell>
        <mxCell id="nKhrt30oRKaUFYbFxk2Q-23" style="edgeStyle=orthogonalEdgeStyle;rounded=0;orthogonalLoop=1;jettySize=auto;html=1;entryX=0.5;entryY=0;entryDx=0;entryDy=0;exitX=0.5;exitY=1;exitDx=0;exitDy=0;exitPerimeter=0;" parent="1" source="awBL8_RBLQok6DBFQ3Oc-89" target="awBL8_RBLQok6DBFQ3Oc-92" edge="1">
          <mxGeometry relative="1" as="geometry" />
        </mxCell>
        <mxCell id="nKhrt30oRKaUFYbFxk2Q-25" style="edgeStyle=orthogonalEdgeStyle;rounded=0;orthogonalLoop=1;jettySize=auto;html=1;entryX=1;entryY=0.5;entryDx=0;entryDy=0;entryPerimeter=0;" parent="1" source="awBL8_RBLQok6DBFQ3Oc-92" target="awBL8_RBLQok6DBFQ3Oc-94" edge="1">
          <mxGeometry relative="1" as="geometry" />
        </mxCell>
        <mxCell id="8XTtVJRQWcLJK9WEEvCq-12" style="edgeStyle=orthogonalEdgeStyle;rounded=0;orthogonalLoop=1;jettySize=auto;html=1;entryX=0.5;entryY=0;entryDx=0;entryDy=0;entryPerimeter=0;" edge="1" parent="1" source="awBL8_RBLQok6DBFQ3Oc-91" target="awBL8_RBLQok6DBFQ3Oc-94">
          <mxGeometry relative="1" as="geometry">
            <Array as="points">
              <mxPoint x="-2044" y="661" />
              <mxPoint x="-2044" y="1053" />
            </Array>
          </mxGeometry>
        </mxCell>
        <mxCell id="8XTtVJRQWcLJK9WEEvCq-13" style="edgeStyle=orthogonalEdgeStyle;rounded=0;orthogonalLoop=1;jettySize=auto;html=1;entryX=0.5;entryY=0;entryDx=0;entryDy=0;entryPerimeter=0;" edge="1" parent="1" source="awBL8_RBLQok6DBFQ3Oc-110" target="awBL8_RBLQok6DBFQ3Oc-94">
          <mxGeometry relative="1" as="geometry">
            <Array as="points">
              <mxPoint x="-2044" y="444" />
              <mxPoint x="-2044" y="1054" />
              <mxPoint x="-1574" y="1054" />
            </Array>
          </mxGeometry>
        </mxCell>
        <mxCell id="8XTtVJRQWcLJK9WEEvCq-14" style="edgeStyle=orthogonalEdgeStyle;rounded=0;orthogonalLoop=1;jettySize=auto;html=1;entryX=0.5;entryY=0;entryDx=0;entryDy=0;entryPerimeter=0;" edge="1" parent="1" source="awBL8_RBLQok6DBFQ3Oc-105" target="awBL8_RBLQok6DBFQ3Oc-94">
          <mxGeometry relative="1" as="geometry">
            <Array as="points">
              <mxPoint x="-2043" y="893" />
              <mxPoint x="-2043" y="1053" />
            </Array>
          </mxGeometry>
        </mxCell>
        <mxCell id="8XTtVJRQWcLJK9WEEvCq-16" style="edgeStyle=orthogonalEdgeStyle;rounded=0;orthogonalLoop=1;jettySize=auto;html=1;entryX=0;entryY=0.5;entryDx=0;entryDy=0;entryPerimeter=0;" edge="1" parent="1" source="awBL8_RBLQok6DBFQ3Oc-94" target="awBL8_RBLQok6DBFQ3Oc-80">
          <mxGeometry relative="1" as="geometry">
            <Array as="points">
              <mxPoint x="-2104" y="1136" />
              <mxPoint x="-2104" y="230" />
            </Array>
          </mxGeometry>
        </mxCell>
      </root>
    </mxGraphModel>
  </diagram>
</mxfile>
